{
	"patcher" : 	{
		"fileversion" : 1,
		"appversion" : 		{
			"major" : 8,
			"minor" : 3,
			"revision" : 3,
			"architecture" : "x64",
			"modernui" : 1
		}
,
		"classnamespace" : "box",
		"rect" : [ 59.0, 106.0, 785.0, 1012.0 ],
		"bglocked" : 0,
		"openinpresentation" : 0,
		"default_fontsize" : 12.0,
		"default_fontface" : 0,
		"default_fontname" : "Arial",
		"gridonopen" : 1,
		"gridsize" : [ 15.0, 15.0 ],
		"gridsnaponopen" : 1,
		"objectsnaponopen" : 1,
		"statusbarvisible" : 2,
		"toolbarvisible" : 1,
		"lefttoolbarpinned" : 0,
		"toptoolbarpinned" : 0,
		"righttoolbarpinned" : 0,
		"bottomtoolbarpinned" : 0,
		"toolbars_unpinned_last_save" : 0,
		"tallnewobj" : 0,
		"boxanimatetime" : 200,
		"enablehscroll" : 1,
		"enablevscroll" : 1,
		"devicewidth" : 0.0,
		"description" : "",
		"digest" : "",
		"tags" : "",
		"style" : "",
		"subpatcher_template" : "",
		"assistshowspatchername" : 0,
		"boxes" : [ 			{
				"box" : 				{
					"id" : "obj-6",
					"maxclass" : "newobj",
					"numinlets" : 1,
					"numoutlets" : 3,
					"outlettype" : [ "", "int", "int" ],
					"patching_rect" : [ 378.749999999999545, 934.0, 48.0, 22.0 ],
					"text" : "change"
				}

			}
, 			{
				"box" : 				{
					"id" : "obj-7",
					"maxclass" : "newobj",
					"numinlets" : 2,
					"numoutlets" : 1,
					"outlettype" : [ "int" ],
					"patching_rect" : [ 378.749999999999545, 897.0, 32.0, 22.0 ],
					"text" : "> 63"
				}

			}
, 			{
				"box" : 				{
					"id" : "obj-8",
					"maxclass" : "newobj",
					"numinlets" : 1,
					"numoutlets" : 2,
					"outlettype" : [ "bang", "" ],
					"patching_rect" : [ 378.749999999999545, 821.0, 108.5, 22.0 ],
					"text" : "t b l"
				}

			}
, 			{
				"box" : 				{
					"id" : "obj-9",
					"maxclass" : "newobj",
					"numinlets" : 2,
					"numoutlets" : 2,
					"outlettype" : [ "", "" ],
					"patching_rect" : [ 378.749999999999545, 860.0, 109.0, 22.0 ],
					"saved_object_attributes" : 					{
						"_persistence" : 1
					}
,
					"text" : "live.observer value"
				}

			}
, 			{
				"box" : 				{
					"comment" : "",
					"id" : "obj-10",
					"index" : 4,
					"maxclass" : "outlet",
					"numinlets" : 1,
					"numoutlets" : 0,
					"patching_rect" : [ 378.749999999999545, 973.0, 30.0, 30.0 ]
				}

			}
, 			{
				"box" : 				{
					"id" : "obj-4",
					"maxclass" : "message",
					"numinlets" : 2,
					"numoutlets" : 1,
					"outlettype" : [ "" ],
					"patching_rect" : [ 250.749999999999972, 655.0, 29.5, 22.0 ],
					"text" : "4"
				}

			}
, 			{
				"box" : 				{
					"id" : "obj-3",
					"maxclass" : "newobj",
					"numinlets" : 1,
					"numoutlets" : 3,
					"outlettype" : [ "", "int", "int" ],
					"patching_rect" : [ 259.33333333333303, 934.0, 48.0, 22.0 ],
					"text" : "change"
				}

			}
, 			{
				"box" : 				{
					"id" : "obj-2",
					"maxclass" : "newobj",
					"numinlets" : 1,
					"numoutlets" : 3,
					"outlettype" : [ "", "int", "int" ],
					"patching_rect" : [ 139.916666666666515, 934.0, 48.0, 22.0 ],
					"text" : "change"
				}

			}
, 			{
				"box" : 				{
					"id" : "obj-1",
					"maxclass" : "newobj",
					"numinlets" : 1,
					"numoutlets" : 3,
					"outlettype" : [ "", "int", "int" ],
					"patching_rect" : [ 19.5, 934.0, 48.0, 22.0 ],
					"text" : "change"
				}

			}
, 			{
				"box" : 				{
					"id" : "obj-87",
					"maxclass" : "newobj",
					"numinlets" : 2,
					"numoutlets" : 1,
					"outlettype" : [ "int" ],
					"patching_rect" : [ 259.33333333333303, 897.0, 32.0, 22.0 ],
					"text" : "> 63"
				}

			}
, 			{
				"box" : 				{
					"id" : "obj-82",
					"maxclass" : "newobj",
					"numinlets" : 2,
					"numoutlets" : 1,
					"outlettype" : [ "int" ],
					"patching_rect" : [ 139.916666666666515, 897.0, 32.0, 22.0 ],
					"text" : "> 63"
				}

			}
, 			{
				"box" : 				{
					"id" : "obj-75",
					"maxclass" : "newobj",
					"numinlets" : 2,
					"numoutlets" : 1,
					"outlettype" : [ "int" ],
					"patching_rect" : [ 19.5, 897.0, 32.0, 22.0 ],
					"text" : "> 63"
				}

			}
, 			{
				"box" : 				{
					"id" : "obj-117",
					"maxclass" : "newobj",
					"numinlets" : 1,
					"numoutlets" : 2,
					"outlettype" : [ "bang", "" ],
					"patching_rect" : [ 259.33333333333303, 821.0, 108.5, 22.0 ],
					"text" : "t b l"
				}

			}
, 			{
				"box" : 				{
					"id" : "obj-115",
					"maxclass" : "newobj",
					"numinlets" : 1,
					"numoutlets" : 2,
					"outlettype" : [ "bang", "" ],
					"patching_rect" : [ 139.916666666666515, 821.0, 108.5, 22.0 ],
					"text" : "t b l"
				}

			}
, 			{
				"box" : 				{
					"id" : "obj-114",
					"maxclass" : "newobj",
					"numinlets" : 1,
					"numoutlets" : 2,
					"outlettype" : [ "bang", "" ],
					"patching_rect" : [ 20.0, 821.0, 109.5, 22.0 ],
					"text" : "t b l"
				}

			}
, 			{
				"box" : 				{
					"id" : "obj-109",
					"maxclass" : "newobj",
					"numinlets" : 5,
					"numoutlets" : 5,
					"outlettype" : [ "", "", "", "", "" ],
					"patching_rect" : [ 20.5, 784.0, 496.66666666666606, 22.0 ],
					"text" : "route 1 2 3 4"
				}

			}
, 			{
				"box" : 				{
					"id" : "obj-108",
					"maxclass" : "newobj",
					"numinlets" : 2,
					"numoutlets" : 2,
					"outlettype" : [ "", "" ],
					"patching_rect" : [ 259.33333333333303, 860.0, 109.0, 22.0 ],
					"saved_object_attributes" : 					{
						"_persistence" : 1
					}
,
					"text" : "live.observer value"
				}

			}
, 			{
				"box" : 				{
					"id" : "obj-107",
					"maxclass" : "newobj",
					"numinlets" : 2,
					"numoutlets" : 2,
					"outlettype" : [ "", "" ],
					"patching_rect" : [ 139.916666666666515, 860.0, 109.0, 22.0 ],
					"saved_object_attributes" : 					{
						"_persistence" : 1
					}
,
					"text" : "live.observer value"
				}

			}
, 			{
				"box" : 				{
					"id" : "obj-106",
					"maxclass" : "newobj",
					"numinlets" : 1,
					"numoutlets" : 2,
					"outlettype" : [ "", "int" ],
					"patching_rect" : [ 127.5, 701.0, 126.0, 22.0 ],
					"text" : "unpack s i"
				}

			}
, 			{
				"box" : 				{
					"id" : "obj-105",
					"maxclass" : "newobj",
					"numinlets" : 3,
					"numoutlets" : 1,
					"outlettype" : [ "" ],
					"patching_rect" : [ 20.5, 742.0, 233.0, 22.0 ],
					"text" : "pack i s i"
				}

			}
, 			{
				"box" : 				{
					"id" : "obj-104",
					"maxclass" : "message",
					"numinlets" : 2,
					"numoutlets" : 1,
					"outlettype" : [ "" ],
					"patching_rect" : [ 174.0, 655.0, 29.5, 22.0 ],
					"text" : "3"
				}

			}
, 			{
				"box" : 				{
					"id" : "obj-103",
					"maxclass" : "message",
					"numinlets" : 2,
					"numoutlets" : 1,
					"outlettype" : [ "" ],
					"patching_rect" : [ 97.25, 655.0, 29.5, 22.0 ],
					"text" : "2"
				}

			}
, 			{
				"box" : 				{
					"id" : "obj-102",
					"maxclass" : "message",
					"numinlets" : 2,
					"numoutlets" : 1,
					"outlettype" : [ "" ],
					"patching_rect" : [ 20.5, 655.0, 29.5, 22.0 ],
					"text" : "1"
				}

			}
, 			{
				"box" : 				{
					"id" : "obj-100",
					"maxclass" : "newobj",
					"numinlets" : 2,
					"numoutlets" : 2,
					"outlettype" : [ "", "" ],
					"patching_rect" : [ 20.0, 860.0, 109.5, 22.0 ],
					"saved_object_attributes" : 					{
						"_persistence" : 1
					}
,
					"text" : "live.observer value"
				}

			}
, 			{
				"box" : 				{
					"id" : "obj-99",
					"maxclass" : "newobj",
					"numinlets" : 3,
					"numoutlets" : 3,
					"outlettype" : [ "", "", "" ],
					"patching_rect" : [ 20.5, 388.0, 133.0, 22.0 ],
					"text" : "route parameters name"
				}

			}
, 			{
				"box" : 				{
					"id" : "obj-95",
					"maxclass" : "newobj",
					"numinlets" : 2,
					"numoutlets" : 2,
					"outlettype" : [ "", "" ],
					"patching_rect" : [ 20.5, 580.0, 69.0, 22.0 ],
					"text" : "route name"
				}

			}
, 			{
				"box" : 				{
					"id" : "obj-86",
					"maxclass" : "newobj",
					"numinlets" : 5,
					"numoutlets" : 5,
					"outlettype" : [ "", "", "", "", "" ],
					"patching_rect" : [ 20.5, 616.0, 326.0, 22.0 ],
					"text" : "route \"Chain 1 On\" \"Chain 2 On\" \"Chain 3 On\" \"Chain 4 On\""
				}

			}
, 			{
				"box" : 				{
					"id" : "obj-83",
					"maxclass" : "message",
					"numinlets" : 2,
					"numoutlets" : 1,
					"outlettype" : [ "" ],
					"patching_rect" : [ 20.5, 507.0, 59.0, 22.0 ],
					"text" : "get name"
				}

			}
, 			{
				"box" : 				{
					"id" : "obj-80",
					"maxclass" : "newobj",
					"numinlets" : 1,
					"numoutlets" : 3,
					"outlettype" : [ "bang", "", "" ],
					"patching_rect" : [ 20.5, 464.0, 126.0, 22.0 ],
					"text" : "t b l l"
				}

			}
, 			{
				"box" : 				{
					"id" : "obj-77",
					"maxclass" : "newobj",
					"numinlets" : 2,
					"numoutlets" : 1,
					"outlettype" : [ "" ],
					"patching_rect" : [ 20.5, 540.0, 72.5, 22.0 ],
					"saved_object_attributes" : 					{
						"_persistence" : 1
					}
,
					"text" : "live.object"
				}

			}
, 			{
				"box" : 				{
					"id" : "obj-70",
					"maxclass" : "newobj",
					"numinlets" : 2,
					"numoutlets" : 2,
					"outlettype" : [ "", "" ],
					"patching_rect" : [ 20.5, 429.0, 53.0, 22.0 ],
					"text" : "list.iter 2"
				}

			}
, 			{
				"box" : 				{
					"id" : "obj-76",
					"maxclass" : "message",
					"numinlets" : 2,
					"numoutlets" : 1,
					"outlettype" : [ "" ],
					"patching_rect" : [ 21.0, 299.0, 89.0, 22.0 ],
					"text" : "get parameters"
				}

			}
, 			{
				"box" : 				{
					"id" : "obj-74",
					"maxclass" : "newobj",
					"numinlets" : 1,
					"numoutlets" : 2,
					"outlettype" : [ "bang", "" ],
					"patching_rect" : [ 21.0, 260.0, 125.5, 22.0 ],
					"text" : "t b l"
				}

			}
, 			{
				"box" : 				{
					"id" : "obj-73",
					"maxclass" : "newobj",
					"numinlets" : 2,
					"numoutlets" : 1,
					"outlettype" : [ "" ],
					"patching_rect" : [ 20.5, 339.0, 126.0, 22.0 ],
					"saved_object_attributes" : 					{
						"_persistence" : 1
					}
,
					"text" : "live.object"
				}

			}
, 			{
				"box" : 				{
					"id" : "obj-72",
					"maxclass" : "newobj",
					"numinlets" : 1,
					"numoutlets" : 3,
					"outlettype" : [ "", "", "" ],
					"patching_rect" : [ 21.0, 220.0, 53.0, 22.0 ],
					"text" : "live.path"
				}

			}
, 			{
				"box" : 				{
					"id" : "obj-71",
					"maxclass" : "message",
					"numinlets" : 2,
					"numoutlets" : 1,
					"outlettype" : [ "" ],
					"patching_rect" : [ 21.0, 184.0, 182.0, 22.0 ],
					"text" : "path live_set tracks $1 devices 0"
				}

			}
, 			{
				"box" : 				{
					"id" : "obj-68",
					"maxclass" : "newobj",
					"numinlets" : 2,
					"numoutlets" : 1,
					"outlettype" : [ "int" ],
					"patching_rect" : [ 21.0, 144.0, 29.5, 22.0 ],
					"text" : "int"
				}

			}
, 			{
				"box" : 				{
					"id" : "obj-61",
					"maxclass" : "newobj",
					"numinlets" : 1,
					"numoutlets" : 2,
					"outlettype" : [ "bang", "int" ],
					"patching_rect" : [ 21.0, 107.0, 29.5, 22.0 ],
					"text" : "t b i"
				}

			}
, 			{
				"box" : 				{
					"id" : "obj-5",
					"maxclass" : "newobj",
					"numinlets" : 2,
					"numoutlets" : 2,
					"outlettype" : [ "", "" ],
					"patching_rect" : [ 21.0, 70.0, 101.0, 22.0 ],
					"text" : "route track_index"
				}

			}
, 			{
				"box" : 				{
					"comment" : "",
					"id" : "obj-90",
					"index" : 1,
					"maxclass" : "inlet",
					"numinlets" : 0,
					"numoutlets" : 1,
					"outlettype" : [ "" ],
					"patching_rect" : [ 21.0, 10.0, 30.0, 30.0 ]
				}

			}
, 			{
				"box" : 				{
					"comment" : "",
					"id" : "obj-91",
					"index" : 1,
					"maxclass" : "outlet",
					"numinlets" : 1,
					"numoutlets" : 0,
					"patching_rect" : [ 19.5, 973.0, 30.0, 30.0 ]
				}

			}
, 			{
				"box" : 				{
					"comment" : "",
					"id" : "obj-92",
					"index" : 2,
					"maxclass" : "outlet",
					"numinlets" : 1,
					"numoutlets" : 0,
					"patching_rect" : [ 139.916666666666515, 973.0, 30.0, 30.0 ]
				}

			}
, 			{
				"box" : 				{
					"comment" : "",
					"id" : "obj-93",
					"index" : 3,
					"maxclass" : "outlet",
					"numinlets" : 1,
					"numoutlets" : 0,
					"patching_rect" : [ 259.33333333333303, 973.0, 30.0, 30.0 ]
				}

			}
 ],
		"lines" : [ 			{
				"patchline" : 				{
					"destination" : [ "obj-91", 0 ],
					"source" : [ "obj-1", 0 ]
				}

			}
, 			{
				"patchline" : 				{
					"destination" : [ "obj-75", 0 ],
					"source" : [ "obj-100", 0 ]
				}

			}
, 			{
				"patchline" : 				{
					"destination" : [ "obj-105", 0 ],
					"source" : [ "obj-102", 0 ]
				}

			}
, 			{
				"patchline" : 				{
					"destination" : [ "obj-105", 0 ],
					"midpoints" : [ 106.75, 688.5, 30.0, 688.5 ],
					"source" : [ "obj-103", 0 ]
				}

			}
, 			{
				"patchline" : 				{
					"destination" : [ "obj-105", 0 ],
					"midpoints" : [ 183.5, 688.5, 30.0, 688.5 ],
					"source" : [ "obj-104", 0 ]
				}

			}
, 			{
				"patchline" : 				{
					"destination" : [ "obj-109", 0 ],
					"source" : [ "obj-105", 0 ]
				}

			}
, 			{
				"patchline" : 				{
					"destination" : [ "obj-105", 2 ],
					"source" : [ "obj-106", 1 ]
				}

			}
, 			{
				"patchline" : 				{
					"destination" : [ "obj-105", 1 ],
					"source" : [ "obj-106", 0 ]
				}

			}
, 			{
				"patchline" : 				{
					"destination" : [ "obj-82", 0 ],
					"source" : [ "obj-107", 0 ]
				}

			}
, 			{
				"patchline" : 				{
					"destination" : [ "obj-87", 0 ],
					"source" : [ "obj-108", 0 ]
				}

			}
, 			{
				"patchline" : 				{
					"destination" : [ "obj-114", 0 ],
					"source" : [ "obj-109", 0 ]
				}

			}
, 			{
				"patchline" : 				{
					"destination" : [ "obj-115", 0 ],
					"source" : [ "obj-109", 1 ]
				}

			}
, 			{
				"patchline" : 				{
					"destination" : [ "obj-117", 0 ],
					"source" : [ "obj-109", 2 ]
				}

			}
, 			{
				"patchline" : 				{
					"destination" : [ "obj-8", 0 ],
					"source" : [ "obj-109", 3 ]
				}

			}
, 			{
				"patchline" : 				{
					"destination" : [ "obj-100", 1 ],
					"source" : [ "obj-114", 1 ]
				}

			}
, 			{
				"patchline" : 				{
					"destination" : [ "obj-100", 0 ],
					"source" : [ "obj-114", 0 ]
				}

			}
, 			{
				"patchline" : 				{
					"destination" : [ "obj-107", 1 ],
					"source" : [ "obj-115", 1 ]
				}

			}
, 			{
				"patchline" : 				{
					"destination" : [ "obj-107", 0 ],
					"source" : [ "obj-115", 0 ]
				}

			}
, 			{
				"patchline" : 				{
					"destination" : [ "obj-108", 1 ],
					"source" : [ "obj-117", 1 ]
				}

			}
, 			{
				"patchline" : 				{
					"destination" : [ "obj-108", 0 ],
					"source" : [ "obj-117", 0 ]
				}

			}
, 			{
				"patchline" : 				{
					"destination" : [ "obj-92", 0 ],
					"source" : [ "obj-2", 0 ]
				}

			}
, 			{
				"patchline" : 				{
					"destination" : [ "obj-93", 0 ],
					"source" : [ "obj-3", 0 ]
				}

			}
, 			{
				"patchline" : 				{
					"destination" : [ "obj-105", 0 ],
					"midpoints" : [ 260.25, 689.0, 30.0, 689.0 ],
					"source" : [ "obj-4", 0 ]
				}

			}
, 			{
				"patchline" : 				{
					"destination" : [ "obj-61", 0 ],
					"source" : [ "obj-5", 0 ]
				}

			}
, 			{
				"patchline" : 				{
					"destination" : [ "obj-10", 0 ],
					"source" : [ "obj-6", 0 ]
				}

			}
, 			{
				"patchline" : 				{
					"destination" : [ "obj-68", 1 ],
					"source" : [ "obj-61", 1 ]
				}

			}
, 			{
				"patchline" : 				{
					"destination" : [ "obj-68", 0 ],
					"source" : [ "obj-61", 0 ]
				}

			}
, 			{
				"patchline" : 				{
					"destination" : [ "obj-71", 0 ],
					"source" : [ "obj-68", 0 ]
				}

			}
, 			{
				"patchline" : 				{
					"destination" : [ "obj-6", 0 ],
					"source" : [ "obj-7", 0 ]
				}

			}
, 			{
				"patchline" : 				{
					"destination" : [ "obj-80", 0 ],
					"source" : [ "obj-70", 0 ]
				}

			}
, 			{
				"patchline" : 				{
					"destination" : [ "obj-72", 0 ],
					"source" : [ "obj-71", 0 ]
				}

			}
, 			{
				"patchline" : 				{
					"destination" : [ "obj-74", 0 ],
					"source" : [ "obj-72", 0 ]
				}

			}
, 			{
				"patchline" : 				{
					"destination" : [ "obj-99", 0 ],
					"source" : [ "obj-73", 0 ]
				}

			}
, 			{
				"patchline" : 				{
					"destination" : [ "obj-73", 1 ],
					"source" : [ "obj-74", 1 ]
				}

			}
, 			{
				"patchline" : 				{
					"destination" : [ "obj-76", 0 ],
					"source" : [ "obj-74", 0 ]
				}

			}
, 			{
				"patchline" : 				{
					"destination" : [ "obj-1", 0 ],
					"source" : [ "obj-75", 0 ]
				}

			}
, 			{
				"patchline" : 				{
					"destination" : [ "obj-73", 0 ],
					"source" : [ "obj-76", 0 ]
				}

			}
, 			{
				"patchline" : 				{
					"destination" : [ "obj-95", 0 ],
					"source" : [ "obj-77", 0 ]
				}

			}
, 			{
				"patchline" : 				{
					"destination" : [ "obj-9", 1 ],
					"source" : [ "obj-8", 1 ]
				}

			}
, 			{
				"patchline" : 				{
					"destination" : [ "obj-9", 0 ],
					"source" : [ "obj-8", 0 ]
				}

			}
, 			{
				"patchline" : 				{
					"destination" : [ "obj-106", 0 ],
					"source" : [ "obj-80", 2 ]
				}

			}
, 			{
				"patchline" : 				{
					"destination" : [ "obj-77", 1 ],
					"source" : [ "obj-80", 1 ]
				}

			}
, 			{
				"patchline" : 				{
					"destination" : [ "obj-83", 0 ],
					"source" : [ "obj-80", 0 ]
				}

			}
, 			{
				"patchline" : 				{
					"destination" : [ "obj-2", 0 ],
					"source" : [ "obj-82", 0 ]
				}

			}
, 			{
				"patchline" : 				{
					"destination" : [ "obj-77", 0 ],
					"source" : [ "obj-83", 0 ]
				}

			}
, 			{
				"patchline" : 				{
					"destination" : [ "obj-102", 0 ],
					"source" : [ "obj-86", 0 ]
				}

			}
, 			{
				"patchline" : 				{
					"destination" : [ "obj-103", 0 ],
					"source" : [ "obj-86", 1 ]
				}

			}
, 			{
				"patchline" : 				{
					"destination" : [ "obj-104", 0 ],
					"source" : [ "obj-86", 2 ]
				}

			}
, 			{
				"patchline" : 				{
					"destination" : [ "obj-4", 0 ],
					"source" : [ "obj-86", 3 ]
				}

			}
, 			{
				"patchline" : 				{
					"destination" : [ "obj-3", 0 ],
					"source" : [ "obj-87", 0 ]
				}

			}
, 			{
				"patchline" : 				{
					"destination" : [ "obj-7", 0 ],
					"source" : [ "obj-9", 0 ]
				}

			}
, 			{
				"patchline" : 				{
					"destination" : [ "obj-5", 0 ],
					"source" : [ "obj-90", 0 ]
				}

			}
, 			{
				"patchline" : 				{
					"destination" : [ "obj-86", 0 ],
					"source" : [ "obj-95", 0 ]
				}

			}
, 			{
				"patchline" : 				{
					"destination" : [ "obj-70", 0 ],
					"source" : [ "obj-99", 0 ]
				}

			}
 ],
		"saved_attribute_attributes" : 		{
			"default_plcolor" : 			{
				"expression" : ""
			}

		}

	}

}
